<svg xmlns="http://www.w3.org/2000/svg" width="47" height="36" fill="none"><path fill="url(#a)" d="M11.176 13.098c.07-2.726 3.443-3.954 5.248-1.91l7.184 8.134c1.4 1.585.764 4.082-1.223 4.805l-7.458 2.715c-1.987.723-4.078-.781-4.025-2.895z"/><path fill="url(#b)" d="M35.59 13.098c-.07-2.725-3.444-3.954-5.248-1.91l-7.184 8.135c-1.4 1.584-.764 4.081 1.223 4.804l7.458 2.715c1.986.723 4.078-.781 4.025-2.895z"/><path fill="url(#c)" fill-rule="evenodd" d="M42.76 9.369a.7.7 0 0 1 1.06.73l-4.54 22.518c-.191.568-10.976 2.573-15.907 2.573-4.58 0-15.717-2.005-15.907-2.573L2.96 10.09a.7.7 0 0 1 1.06-.73l10.95 6.91a.7.7 0 0 0 .988-.254L22.763 3.63a.7.7 0 0 1 1.225-.004l6.894 12.395a.7.7 0 0 0 .987.25z" clip-rule="evenodd"/><mask id="d" width="42" height="33" x="2" y="3" maskUnits="userSpaceOnUse" style="mask-type:luminance"><path fill="#fff" fill-rule="evenodd" d="M42.76 9.369a.7.7 0 0 1 1.06.73l-4.54 22.518c-.191.568-10.976 2.573-15.907 2.573-4.58 0-15.717-2.005-15.907-2.573L2.96 10.09a.7.7 0 0 1 1.06-.73l10.95 6.91a.7.7 0 0 0 .988-.254L22.763 3.63a.7.7 0 0 1 1.225-.004l6.894 12.395a.7.7 0 0 0 .987.25z" clip-rule="evenodd"/></mask><g mask="url(#d)"><path stroke="#fff" stroke-linejoin="round" stroke-width=".933" d="m41.295 26.866-.498.137a67.3 67.3 0 0 1-16.776 2.34l-.535.004v-.003a67.3 67.3 0 0 1-17.312-2.345l-.498-.137" opacity=".504"/></g><ellipse cx="3.656" cy="9.52" fill="url(#e)" rx="3.113" ry="3.088"/><ellipse cx="23.378" cy="3.339" fill="url(#f)" rx="3.113" ry="3.088"/><ellipse cx="43.093" cy="9.521" fill="url(#g)" rx="3.113" ry="3.088"/><path fill="#fff" d="M24.381 25.49c-.406.811-1.54.84-1.995.083l-.046-.084-3.424-6.848a1.141 1.141 0 0 1 1.998-1.099l.043.078 2.403 4.807 2.403-4.807c.269-.537.903-.77 1.45-.547l.082.037c.537.268.77.903.547 1.45l-.037.081z" opacity=".7"/><defs><linearGradient id="a" x1="8.467" x2="11.907" y1="9.044" y2="18.496" gradientUnits="userSpaceOnUse"><stop stop-color="#FFC948"/><stop offset="1" stop-color="#FAAD00"/></linearGradient><linearGradient id="b" x1="38.299" x2="34.858" y1="9.044" y2="18.497" gradientUnits="userSpaceOnUse"><stop stop-color="#FFC948"/><stop offset="1" stop-color="#FAAD00"/></linearGradient><linearGradient id="c" x1="41.022" x2="5.517" y1="10.701" y2="9.057" gradientUnits="userSpaceOnUse"><stop stop-color="#FFE177"/><stop offset="1" stop-color="#FDBF2F"/></linearGradient><linearGradient id="e" x1="4.544" x2="-.432" y1="5.648" y2="10.101" gradientUnits="userSpaceOnUse"><stop stop-color="#FDEE87"/><stop offset="1" stop-color="#FFD256"/></linearGradient><linearGradient id="f" x1="24.267" x2="19.291" y1="-.533" y2="3.92" gradientUnits="userSpaceOnUse"><stop stop-color="#FDEE87"/><stop offset="1" stop-color="#FFD256"/></linearGradient><linearGradient id="g" x1="43.982" x2="39.006" y1="5.648" y2="10.102" gradientUnits="userSpaceOnUse"><stop stop-color="#FDEE87"/><stop offset="1" stop-color="#FFD256"/></linearGradient></defs></svg>